<svg width="44" height="44" viewBox="0 0 44 44" fill="none" xmlns="http://www.w3.org/2000/svg">
<rect width="44" height="44" rx="4" fill="#E6E6E7"/>
<path d="M16.5 26C16.9167 26 17.271 25.8543 17.563 25.563C17.855 25.2717 18.0007 24.9173 18 24.5C17.9993 24.0827 17.8537 23.7287 17.563 23.438C17.2723 23.1473 16.918 23.0013 16.5 23C16.082 22.9987 15.728 23.1447 15.438 23.438C15.148 23.7313 15.002 24.0853 15 24.5C14.998 24.9147 15.144 25.269 15.438 25.563C15.732 25.857 16.086 26.0027 16.5 26ZM25.5 26C25.8333 26 26.1333 25.9 26.4 25.7C26.6667 25.5 26.8417 25.2417 26.925 24.925C26.5917 24.8583 26.275 24.7457 25.975 24.587C25.675 24.4283 25.4 24.2243 25.15 23.975L24.525 23.35C24.3583 23.4833 24.2293 23.65 24.138 23.85C24.0467 24.05 24.0007 24.2667 24 24.5C24 24.9167 24.146 25.271 24.438 25.563C24.73 25.855 25.084 26.0007 25.5 26ZM15 29V30C15 30.2833 14.904 30.521 14.712 30.713C14.52 30.905 14.2827 31.0007 14 31H13C12.7167 31 12.4793 30.904 12.288 30.712C12.0967 30.52 12.0007 30.2827 12 30V22L14.1 16C14.2 15.7 14.3793 15.4583 14.638 15.275C14.8967 15.0917 15.184 15 15.5 15H19V16.375C19 16.475 19.0043 16.5793 19.013 16.688C19.0217 16.7967 19.034 16.9007 19.05 17H15.85L14.8 20H21.175L23.175 22H14V27H28V24.975C28.3667 24.9417 28.721 24.85 29.063 24.7C29.405 24.55 29.7173 24.3417 30 24.075V30C30 30.2833 29.904 30.521 29.712 30.713C29.52 30.905 29.2827 31.0007 29 31H28C27.7167 31 27.4793 30.904 27.288 30.712C27.0967 30.52 27.0007 30.2827 27 30V29H15ZM25 16C25.2833 16 25.521 15.904 25.713 15.712C25.905 15.52 26.0007 15.2827 26 15C25.9993 14.7173 25.9033 14.48 25.712 14.288C25.5207 14.096 25.2833 14 25 14C24.7167 14 24.4793 14.096 24.288 14.288C24.0967 14.48 24.0007 14.7173 24 15C23.9993 15.2827 24.0953 15.5203 24.288 15.713C24.4807 15.9057 24.718 16.0013 25 16ZM26.55 22.55L21.45 17.45C21.3167 17.3167 21.2083 17.154 21.125 16.962C21.0417 16.77 21 16.5747 21 16.376V12.5C21 12.0833 21.146 11.7293 21.438 11.438C21.73 11.1467 22.084 11.0007 22.5 11H26.375C26.575 11 26.771 11.0417 26.963 11.125C27.155 11.2083 27.3173 11.3167 27.45 11.45L32.55 16.55C32.8333 16.8333 32.975 17.1877 32.975 17.613C32.975 18.0383 32.8333 18.3923 32.55 18.675L28.675 22.55C28.3917 22.8333 28.0377 22.975 27.613 22.975C27.1883 22.975 26.834 22.8333 26.55 22.55ZM27.625 20.8L30.8 17.625L26.175 13H23V16.175L27.625 20.8Z" fill="#5B5C5F"/>
</svg>
